<svg id="visual" viewBox="0 0 960 540" width="960" height="540" xmlns="http://www.w3.org/2000/svg" xmlns:xlink="http://www.w3.org/1999/xlink" version="1.1">
  <rect x="0" y="0" width="960" height="540" fill="#FFFFFF"></rect>
  <path d="M503 0L504.7 7.5C506.3 15 509.7 30 509 45C508.3 60 503.7 75 499 90C494.3 105 489.7 120 492.8 135C496 150 507 165 505.8 180C504.7 195 491.3 210 479 225C466.7 240 455.3 255 454.3 270C453.3 285 462.7 300 462.2 315C461.7 330 451.3 345 440.7 360C430 375 419 390 429.2 405C439.3 420 470.7 435 479.7 450C488.7 465 475.3 480 478.2 495C481 510 500 525 509.5 532.5L519 540L0 540L0 532.5C0 525 0 510 0 495C0 480 0 465 0 450C0 435 0 420 0 405C0 390 0 375 0 360C0 345 0 330 0 315C0 300 0 285 0 270C0 255 0 240 0 225C0 210 0 195 0 180C0 165 0 150 0 135C0 120 0 105 0 90C0 75 0 60 0 45C0 30 0 15 0 7.5L0 0Z" fill="#fa7268"></path>
  <path d="M401 0L394.8 7.5C388.7 15 376.3 30 367.7 45C359 60 354 75 356 90C358 105 367 120 373.2 135C379.3 150 382.7 165 374.5 180C366.3 195 346.7 210 344.8 225C343 240 359 255 366.2 270C373.3 285 371.7 300 367.8 315C364 330 358 345 364 360C370 375 388 390 390.2 405C392.3 420 378.7 435 377.2 450C375.7 465 386.3 480 381.7 495C377 510 357 525 347 532.5L337 540L0 540L0 532.5C0 525 0 510 0 495C0 480 0 465 0 450C0 435 0 420 0 405C0 390 0 375 0 360C0 345 0 330 0 315C0 300 0 285 0 270C0 255 0 240 0 225C0 210 0 195 0 180C0 165 0 150 0 135C0 120 0 105 0 90C0 75 0 60 0 45C0 30 0 15 0 7.5L0 0Z" fill="#ef5f67"></path>
  <path d="M298 0L292 7.5C286 15 274 30 264.7 45C255.3 60 248.7 75 243.2 90C237.7 105 233.3 120 242 135C250.7 150 272.3 165 280.7 180C289 195 284 210 285.2 225C286.3 240 293.7 255 302 270C310.3 285 319.7 300 315.7 315C311.7 330 294.3 345 287.8 360C281.3 375 285.7 390 286.8 405C288 420 286 435 279.5 450C273 465 262 480 265.2 495C268.3 510 285.7 525 294.3 532.5L303 540L0 540L0 532.5C0 525 0 510 0 495C0 480 0 465 0 450C0 435 0 420 0 405C0 390 0 375 0 360C0 345 0 330 0 315C0 300 0 285 0 270C0 255 0 240 0 225C0 210 0 195 0 180C0 165 0 150 0 135C0 120 0 105 0 90C0 75 0 60 0 45C0 30 0 15 0 7.5L0 0Z" fill="#e34c67"></path>
  <path d="M169 0L179.5 7.5C190 15 211 30 221.5 45C232 60 232 75 229 90C226 105 220 120 214.7 135C209.3 150 204.7 165 207.3 180C210 195 220 210 210.8 225C201.7 240 173.3 255 168.3 270C163.3 285 181.7 300 190.5 315C199.3 330 198.7 345 194 360C189.3 375 180.7 390 187.3 405C194 420 216 435 222.3 450C228.7 465 219.3 480 215.2 495C211 510 212 525 212.5 532.5L213 540L0 540L0 532.5C0 525 0 510 0 495C0 480 0 465 0 450C0 435 0 420 0 405C0 390 0 375 0 360C0 345 0 330 0 315C0 300 0 285 0 270C0 255 0 240 0 225C0 210 0 195 0 180C0 165 0 150 0 135C0 120 0 105 0 90C0 75 0 60 0 45C0 30 0 15 0 7.5L0 0Z" fill="#d53867"></path>
  <path d="M106 0L104.2 7.5C102.3 15 98.7 30 102 45C105.3 60 115.7 75 110.3 90C105 105 84 120 79.3 135C74.7 150 86.3 165 86 180C85.7 195 73.3 210 71 225C68.7 240 76.3 255 86.3 270C96.3 285 108.7 300 105.5 315C102.3 330 83.7 345 82.5 360C81.3 375 97.7 390 107.3 405C117 420 120 435 115.5 450C111 465 99 480 88.3 495C77.7 510 68.3 525 63.7 532.5L59 540L0 540L0 532.5C0 525 0 510 0 495C0 480 0 465 0 450C0 435 0 420 0 405C0 390 0 375 0 360C0 345 0 330 0 315C0 300 0 285 0 270C0 255 0 240 0 225C0 210 0 195 0 180C0 165 0 150 0 135C0 120 0 105 0 90C0 75 0 60 0 45C0 30 0 15 0 7.5L0 0Z" fill="#c62368"></path>
</svg>